<svg width="58" height="58" viewBox="0 0 58 58" fill="none" xmlns="http://www.w3.org/2000/svg">
<g clip-path="url(#clip0)">
<path d="M41.5669 54.1333H14.5003C13.9668 54.1333 13.5337 54.5664 13.5337 55.0999V57.0333C13.5337 57.5669 13.9668 57.9999 14.5003 57.9999C15.0339 57.9999 15.4669 57.5669 15.4669 57.0333V56.0667H41.5669C42.1005 56.0667 42.5336 55.6336 42.5336 55.1C42.5336 54.5665 42.1006 54.1333 41.5669 54.1333Z" fill="#F47521"/>
<path d="M21.2666 24.1665C21.2666 24.7001 21.6997 25.1332 22.2332 25.1332H26.1C26.6335 25.1332 27.0666 24.7001 27.0666 24.1665V18.3665C27.0666 17.833 26.6335 17.3999 26.1 17.3999H22.2333C21.6998 17.3999 21.2667 17.833 21.2667 18.3665V24.1665H21.2666ZM23.2 19.3333H25.1333V23.1999H23.2V19.3333Z" fill="#F47521"/>
<path d="M12.5666 11.6001H0.966629C0.433074 11.6001 0 12.0332 0 12.5667V31.9001C0 32.4337 0.433074 32.8667 0.966629 32.8667C1.50018 32.8667 1.93326 32.4337 1.93326 31.9001V13.5335H12.5666C13.1002 13.5335 13.5333 13.1004 13.5333 12.5668C13.5333 12.0333 13.1003 11.6001 12.5666 11.6001Z" fill="#F47521"/>
<path d="M46.4004 47.3667C46.4004 47.9003 46.8335 48.3334 47.367 48.3334H51.2336C51.7672 48.3334 52.2003 47.9003 52.2003 47.3667V41.5667C52.2003 41.0332 51.7672 40.6001 51.2336 40.6001H47.367C46.8335 40.6001 46.4004 41.0332 46.4004 41.5667V47.3667ZM48.3338 42.5335H50.2671V46.4001H48.3338V42.5335Z" fill="#F47521"/>
<path d="M4.83337 34.8C0.0550547 34.8 0 47.241 0 47.3667C0 49.7012 1.66365 51.6529 3.86663 52.1024V57.0334C3.86663 57.567 4.2997 58.0001 4.83326 58.0001C5.36681 58.0001 5.79989 57.567 5.79989 57.0334V52.1024C8.00287 51.6529 9.66652 49.7012 9.66652 47.3667C9.66663 47.241 9.61157 34.8 4.83337 34.8ZM4.83337 50.2667C3.23452 50.2667 1.93337 48.9655 1.93337 47.3667C1.93337 42.5508 3.22682 36.7333 4.83337 36.7333C6.43993 36.7333 7.73337 42.5508 7.73337 47.3667C7.73337 48.9655 6.43222 50.2667 4.83337 50.2667Z" fill="#F47521"/>
<path d="M10.6332 29H6.76643C6.23288 29 5.7998 29.4331 5.7998 29.9666V31.9C5.7998 32.4336 6.23288 32.8666 6.76643 32.8666C7.29999 32.8666 7.73306 32.4336 7.73306 31.9V30.9334H9.66643V35.7667C9.66643 36.3003 10.0995 36.7334 10.6331 36.7334C11.1666 36.7334 11.5997 36.3003 11.5997 35.7667V29.9667C11.5998 29.4331 11.1667 29 10.6332 29Z" fill="#F47521"/>
<path d="M47.367 25.1334H51.2336C51.7672 25.1334 52.2003 24.7003 52.2003 24.1668V18.3668C52.2003 17.8332 51.7672 17.4001 51.2336 17.4001H47.367C46.8335 17.4001 46.4004 17.8332 46.4004 18.3668V24.1668C46.4004 24.7003 46.8335 25.1334 47.367 25.1334ZM48.3338 19.3334H50.2671V23.2H48.3338V19.3334Z" fill="#F47521"/>
<path d="M10.6332 17.3999H6.76643C6.23288 17.3999 5.7998 17.833 5.7998 18.3665V24.1665C5.7998 24.7001 6.23288 25.1332 6.76643 25.1332H10.6331C11.1666 25.1332 11.5997 24.7001 11.5997 24.1665V18.3665C11.5998 17.833 11.1667 17.3999 10.6332 17.3999ZM9.66643 23.1999H7.73317V19.3333H9.66655V23.1999H9.66643Z" fill="#F47521"/>
<path d="M30.9331 24.1665C30.9331 24.7001 31.3662 25.1332 31.8997 25.1332H35.7664C36.2999 25.1332 36.733 24.7001 36.733 24.1665V18.3665C36.733 17.833 36.2999 17.3999 35.7664 17.3999H31.8997C31.3662 17.3999 30.9331 17.833 30.9331 18.3665V24.1665ZM32.8664 19.3333H34.7997V23.1999H32.8664V19.3333Z" fill="#F47521"/>
<path d="M57.0334 11.6001H45.4334C44.8999 11.6001 44.4668 12.0332 44.4668 12.5667C44.4668 13.1003 44.8999 13.5334 45.4334 13.5334H56.0668V52.378C55.7633 52.2697 55.4414 52.2001 55.1002 52.2001C54.933 52.2001 54.7667 52.2146 54.6033 52.2436C53.9363 51.042 52.6671 50.2667 51.2335 50.2667C49.8 50.2667 48.5308 51.042 47.8638 52.2436C47.7004 52.2146 47.5341 52.2001 47.3669 52.2001C45.7681 52.2001 44.4669 53.5013 44.4669 55.1001C44.4669 56.699 45.7681 58.0001 47.3669 58.0001H55.1001C56.6989 58.0001 58.0001 56.699 58.0001 55.1001V12.5667C58.0001 12.0332 57.567 11.6001 57.0334 11.6001ZM55.1001 56.0667H47.3667C46.834 56.0667 46.4001 55.6328 46.4001 55.1001C46.4001 54.5675 46.834 54.1335 47.3667 54.1335C47.5522 54.1335 47.7282 54.1866 47.8906 54.2911C48.1555 54.4612 48.4861 54.4921 48.7781 54.3742C49.07 54.2563 49.2856 54.003 49.3561 53.6966C49.5602 52.8159 50.3325 52.2001 51.2334 52.2001C52.1344 52.2001 52.9067 52.8159 53.1107 53.6966C53.1813 54.003 53.3969 54.2563 53.6888 54.3742C53.9798 54.4921 54.3113 54.4612 54.5762 54.2911C55.2055 53.8851 56.0668 54.3819 56.0668 55.1001C56.0667 55.6328 55.6327 56.0667 55.1001 56.0667Z" fill="#F47521"/>
<path d="M31.8997 13.5333H35.7664C36.2999 13.5333 36.733 13.1002 36.733 12.5667V6.76668C36.733 6.23312 36.2999 5.80005 35.7664 5.80005H31.8997C31.3662 5.80005 30.9331 6.23312 30.9331 6.76668V12.5667C30.9331 13.1002 31.3662 13.5333 31.8997 13.5333ZM32.8664 7.73331H34.7997V11.5999H32.8664V7.73331Z" fill="#F47521"/>
<path d="M30.9331 35.7666C30.9331 36.3002 31.3662 36.7333 31.8997 36.7333H35.7664C36.2999 36.7333 36.733 36.3002 36.733 35.7666V29.9666C36.733 29.4331 36.2999 29 35.7664 29H31.8997C31.3662 29 30.9331 29.4331 30.9331 29.9666V35.7666ZM32.8664 30.9334H34.7997V34.8H32.8664V30.9334Z" fill="#F47521"/>
<path d="M22.2332 13.5333H26.0999C26.6334 13.5333 27.0665 13.1002 27.0665 12.5667V6.76668C27.0665 6.23312 26.6334 5.80005 26.0999 5.80005H22.2332C21.6997 5.80005 21.2666 6.23312 21.2666 6.76668V12.5667C21.2665 13.1002 21.6996 13.5333 22.2332 13.5333ZM23.1999 7.73331H25.1332V11.5999H23.1999V7.73331Z" fill="#F47521"/>
<path d="M28.3136 46.6804C28.1396 46.864 28.0332 47.1154 28.0332 47.3668C28.0332 47.6182 28.1396 47.8694 28.3136 48.0532C28.4972 48.2272 28.7486 48.3335 28.9999 48.3335C29.2513 48.3335 29.5026 48.2272 29.6863 48.0532C29.8603 47.8695 29.9667 47.6182 29.9667 47.3668C29.9667 47.1154 29.8603 46.8642 29.6863 46.6804C29.3189 46.3227 28.6809 46.3227 28.3136 46.6804Z" fill="#F47521"/>
<path d="M21.2666 35.7666C21.2666 36.3002 21.6997 36.7333 22.2332 36.7333H26.1C26.6335 36.7333 27.0666 36.3002 27.0666 35.7666V29.9666C27.0666 29.4331 26.6335 29 26.1 29H22.2333C21.6998 29 21.2667 29.4331 21.2667 29.9666V35.7666H21.2666ZM23.2 30.9334H25.1333V34.8H23.2V30.9334Z" fill="#F47521"/>
<path d="M19.3335 41.5667C19.3335 42.1003 19.7666 42.5334 20.3001 42.5334H23.2001V51.2334C23.2001 51.7669 23.6332 52.2 24.1668 52.2C24.7003 52.2 25.1334 51.7669 25.1334 51.2334V42.5334H32.8668V51.2334C32.8668 51.7669 33.2998 52.2 33.8334 52.2C34.3669 52.2 34.8 51.7669 34.8 51.2334V42.5334H37.7C38.2336 42.5334 38.6667 42.1003 38.6667 41.5667C38.6667 41.0332 38.2336 40.6001 37.7 40.6001H20.3001C19.7666 40.6001 19.3335 41.0332 19.3335 41.5667Z" fill="#F47521"/>
<path d="M46.4004 35.7666C46.4004 36.3002 46.8335 36.7333 47.367 36.7333H51.2336C51.7672 36.7333 52.2003 36.3002 52.2003 35.7666V29.9666C52.2003 29.4331 51.7672 29 51.2336 29H47.367C46.8335 29 46.4004 29.4331 46.4004 29.9666V35.7666ZM48.3338 30.9334H50.2671V34.8H48.3338V30.9334Z" fill="#F47521"/>
<path d="M41.5667 0H16.4334C15.8999 0 15.4668 0.433074 15.4668 0.966629V51.2333C15.4668 51.7668 15.8999 52.1999 16.4334 52.1999C16.967 52.1999 17.4001 51.7668 17.4001 51.2333V1.93326H40.6001V51.2333C40.6001 51.7668 41.0331 52.1999 41.5667 52.1999C42.1002 52.1999 42.5333 51.7668 42.5333 51.2333V0.966629C42.5334 0.433074 42.1004 0 41.5667 0Z" fill="#F47521"/>
</g>
<defs>
<clipPath id="clip0">
<rect width="58" height="58" fill="white"/>
</clipPath>
</defs>
</svg>
