<svg width="62" height="58" viewBox="0 0 62 58" fill="none" xmlns="http://www.w3.org/2000/svg">
<path d="M53.4458 44.9388C53.2608 45.1496 53.1494 45.4408 53.1494 45.7308C53.1494 46.0208 53.2516 46.3108 53.4458 46.5227C53.639 46.7235 53.9058 46.8461 54.1715 46.8461C54.4373 46.8461 54.703 46.7235 54.8972 46.5227C55.0812 46.3108 55.1936 46.0208 55.1936 45.7308C55.1936 45.4408 55.0812 45.1496 54.8972 44.9388C54.519 44.5373 53.8342 44.5261 53.4458 44.9388Z" fill="#F47521"/>
<path d="M24.1605 42.678L20.442 40.6056V40.1739C22.106 39.1824 23.2763 37.5483 23.9295 35.3053C24.9199 34.7331 25.5526 33.6177 25.5526 32.3662V31.2509C25.5526 30.2169 25.112 29.2588 24.3761 28.6297C23.7383 24.4136 21.042 22.2765 16.3536 22.2765C16.1318 22.2765 15.9151 22.2865 15.7036 22.3044C14.8194 22.3791 13.5275 22.301 12.4083 21.4779C11.9892 21.17 11.6734 20.8711 11.471 20.59C11.1276 20.1126 10.5501 19.9464 10.0391 20.1784C9.52698 20.4082 9.22546 20.9681 9.28985 21.5704C9.33278 21.9854 9.39717 22.4717 9.49427 23.0037C9.69154 24.0912 9.69154 24.0912 9.41455 24.7415C9.31029 24.988 9.18151 25.288 9.03024 25.6929C8.69192 26.5964 8.45172 27.5857 8.31374 28.6442C7.58805 29.2733 7.15467 30.2269 7.15467 31.2509V32.3662C7.15467 33.6177 7.78736 34.7331 8.77778 35.3064C9.4309 37.5506 10.6012 39.1846 12.2652 40.1751V40.5944L8.41186 42.6657C7.00545 43.5034 6.13257 45.1095 6.13257 46.8584V48.3352C6.13257 49.2309 6.13257 51.3278 16.3536 51.3278C26.5747 51.3278 26.5747 49.2309 26.5747 48.3352V46.9477C26.5747 45.1296 25.6497 43.4933 24.1605 42.678ZM24.5305 48.0831C23.8937 48.5059 21.2996 49.0959 16.3536 49.0959C11.4077 49.0959 8.81355 48.5059 8.17678 48.0831V46.8573C8.17678 45.926 8.64286 45.0694 9.35322 44.6455L13.2965 42.5263C13.9118 42.1984 14.3094 41.5035 14.3094 40.7551V38.7429L13.6921 38.4518C12.1415 37.7246 11.1337 36.3337 10.6104 34.1977L10.4642 33.6043L9.92662 33.4214C9.49836 33.2764 9.19888 32.8414 9.19888 32.3662V31.2509C9.19888 30.846 9.41046 30.4712 9.75184 30.2727L10.2312 29.9938L10.2874 29.4049C10.3886 28.3576 10.6022 27.3927 10.9232 26.5384C11.0591 26.1759 11.1746 25.9048 11.2686 25.6829C11.6151 24.8697 11.7409 24.4504 11.654 23.5904C12.855 24.3399 14.2982 24.6601 15.8671 24.5296C16.0255 24.5151 16.188 24.5072 16.3546 24.5072C20.1814 24.5072 22.0498 26.0197 22.4147 29.4138L22.4781 29.9972L22.9544 30.2704C23.2958 30.4679 23.5084 30.8426 23.5084 31.2509V32.3662C23.5084 32.8425 23.2089 33.2764 22.7806 33.4214L22.243 33.6043L22.0968 34.1977C21.5735 36.3337 20.5657 37.7246 19.0152 38.4518L18.3978 38.7429V40.764C18.3978 41.5068 18.775 42.1805 19.3831 42.5207L23.2344 44.6667L23.2416 44.6712C24.0368 45.105 24.5305 45.9784 24.5305 46.9477V48.0831Z" fill="#F47521"/>
<path d="M31.6852 27.9047H41.9062C42.4715 27.9047 42.9283 27.4061 42.9283 26.7893C42.9283 26.1725 42.4715 25.6739 41.9062 25.6739H31.6852C31.12 25.6739 30.6631 26.1725 30.6631 26.7893C30.6631 27.4061 31.12 27.9047 31.6852 27.9047Z" fill="#F47521"/>
<path d="M32.7073 44.6355H31.6852C31.12 44.6355 30.6631 45.134 30.6631 45.7509C30.6631 46.3677 31.12 46.8662 31.6852 46.8662H32.7073C33.2725 46.8662 33.7294 46.3677 33.7294 45.7509C33.7294 45.134 33.2725 44.6355 32.7073 44.6355Z" fill="#F47521"/>
<path d="M38.8398 44.6355H36.7955C36.2303 44.6355 35.7734 45.134 35.7734 45.7509C35.7734 46.3677 36.2303 46.8662 36.7955 46.8662H38.8398C39.405 46.8662 39.8619 46.3677 39.8619 45.7509C39.8619 45.134 39.405 44.6355 38.8398 44.6355Z" fill="#F47521"/>
<path d="M43.9507 44.6355H42.9286C42.3634 44.6355 41.9065 45.134 41.9065 45.7509C41.9065 46.3677 42.3634 46.8662 42.9286 46.8662H43.9507C44.5159 46.8662 44.9728 46.3677 44.9728 45.7509C44.9728 45.134 44.5159 44.6355 43.9507 44.6355Z" fill="#F47521"/>
<path d="M50.0834 44.6355H48.0392C47.474 44.6355 47.0171 45.134 47.0171 45.7509C47.0171 46.3677 47.474 46.8662 48.0392 46.8662H50.0834C50.6486 46.8662 51.1055 46.3677 51.1055 45.7509C51.1055 45.134 50.6486 44.6355 50.0834 44.6355Z" fill="#F47521"/>
<path d="M54.1715 32.3662H31.6852C31.12 32.3662 30.6631 32.8648 30.6631 33.4816C30.6631 34.0984 31.12 34.597 31.6852 34.597H54.1715C54.7367 34.597 55.1936 34.0984 55.1936 33.4816C55.1936 32.8648 54.7367 32.3662 54.1715 32.3662Z" fill="#F47521"/>
<path d="M54.1715 39.0585H31.6852C31.12 39.0585 30.6631 39.5571 30.6631 40.1739C30.6631 40.7907 31.12 41.2893 31.6852 41.2893H54.1715C54.7367 41.2893 55.1936 40.7907 55.1936 40.1739C55.1936 39.5571 54.7367 39.0585 54.1715 39.0585Z" fill="#F47521"/>
<path d="M56.5449 11.1538H37.8179V2.57988C37.8179 1.15665 36.758 0 35.4538 0H25.8715C24.5683 0 23.5084 1.15665 23.5084 2.57988V11.1538H4.78141C2.1454 11.1538 0 13.495 0 16.3716V52.7833C0 55.6588 2.1454 58 4.78141 58H56.5459C59.1809 58 61.3263 55.6588 61.3263 52.7822V16.3716C61.3263 13.495 59.1809 11.1538 56.5449 11.1538ZM25.5526 2.57988C25.5526 2.38804 25.6967 2.23077 25.8715 2.23077H35.4538C35.6296 2.23077 35.7737 2.38804 35.7737 2.57988V11.1538V17.4982C35.7737 17.6889 35.6296 17.8462 35.4538 17.8462H25.8715C25.6967 17.8462 25.5526 17.6889 25.5526 17.4982V11.1538V2.57988ZM59.2821 52.7822C59.2821 54.4296 58.0545 55.7692 56.5449 55.7692H4.78141C3.27176 55.7692 2.04421 54.4296 2.04421 52.7822V16.3716C2.04421 14.7242 3.27176 13.3846 4.78141 13.3846H23.5084V17.4982C23.5084 18.9203 24.5683 20.0769 25.8715 20.0769H35.4538C36.758 20.0769 37.8179 18.9203 37.8179 17.4982V13.3846H56.5449C58.0545 13.3846 59.2821 14.7242 59.2821 16.3716V52.7822Z" fill="#F47521"/>
<path d="M30.6631 12.2692C32.9179 12.2692 34.7515 10.2682 34.7515 7.8077C34.7515 5.34716 32.9179 3.34616 30.6631 3.34616C28.4084 3.34616 26.5747 5.34716 26.5747 7.8077C26.5747 10.2682 28.4084 12.2692 30.6631 12.2692ZM30.6631 5.57693C31.7905 5.57693 32.7073 6.57743 32.7073 7.8077C32.7073 9.03797 31.7905 10.0385 30.6631 10.0385C29.5357 10.0385 28.6189 9.03797 28.6189 7.8077C28.6189 6.57743 29.5357 5.57693 30.6631 5.57693Z" fill="#F47521"/>
</svg>
