<svg width="78" height="40" viewBox="0 0 78 40" fill="none" xmlns="http://www.w3.org/2000/svg">
<path d="M76.2455 39.9671C76.2747 39.9612 76.3032 39.9532 76.3319 39.9457C76.3564 39.9393 76.3811 39.9341 76.4051 39.9265C76.4331 39.9179 76.4605 39.9071 76.4879 39.8971C76.5121 39.8882 76.5365 39.8802 76.5606 39.8699C76.5864 39.859 76.6113 39.8462 76.6364 39.8341C76.6609 39.8223 76.6858 39.8113 76.7098 39.7981C76.7338 39.7851 76.7564 39.7702 76.7798 39.7561C76.8038 39.7415 76.828 39.7278 76.8514 39.7118C76.8763 39.6949 76.8994 39.6762 76.9234 39.658C76.9436 39.6427 76.9642 39.6283 76.984 39.6119C77.0203 39.5816 77.0549 39.5491 77.0885 39.5158C77.0946 39.5099 77.1011 39.5049 77.1072 39.4987C77.1134 39.4923 77.1188 39.4853 77.1249 39.4786C77.1572 39.4449 77.1886 39.4102 77.2182 39.3737C77.2355 39.3522 77.2505 39.3299 77.2667 39.3078C77.2833 39.2849 77.3008 39.2628 77.3163 39.2391C77.3329 39.2138 77.3475 39.1875 77.3627 39.1615C77.3755 39.1396 77.3892 39.1182 77.4011 39.0956C77.415 39.0693 77.4267 39.0422 77.439 39.0155C77.45 38.9917 77.4617 38.9682 77.4718 38.9438C77.4826 38.9176 77.4911 38.8909 77.5005 38.8642C77.5097 38.8382 77.5196 38.8124 77.5274 38.7859C77.5355 38.759 77.5413 38.7316 77.5481 38.7043C77.5546 38.6773 77.5622 38.6509 77.5674 38.6237C77.5737 38.5916 77.5775 38.5592 77.582 38.5267C77.5851 38.5039 77.5894 38.4813 77.5916 38.4583C77.5972 38.4015 77.6001 38.3447 77.6001 38.2876V1.71123C77.6001 0.765944 76.8469 0 75.9172 0H22.9063C22.8915 0 22.8772 0.00182405 22.8624 0.00228038C22.8303 0.00319303 22.7984 0.00456274 22.7666 0.0073007C22.7412 0.00935417 22.7161 0.0123209 22.6909 0.0157433C22.6622 0.0193939 22.6337 0.0237287 22.6052 0.0289765C22.5785 0.0337679 22.552 0.0394716 22.5258 0.045632C22.4991 0.0520205 22.4724 0.0588661 22.4459 0.0666237C22.4197 0.0741531 22.3938 0.0823657 22.3683 0.0910359C22.342 0.100162 22.3158 0.109747 22.29 0.120242C22.2655 0.130053 22.2415 0.140091 22.2177 0.151043C22.1912 0.163136 22.165 0.176142 22.1389 0.189604C22.1167 0.20124 22.095 0.213104 22.0734 0.225653C22.0474 0.240712 22.0218 0.256683 21.9965 0.273111C21.9756 0.286801 21.9552 0.300947 21.935 0.315321C21.9112 0.332433 21.8876 0.35023 21.8645 0.368939C21.8434 0.386052 21.8228 0.403621 21.8024 0.421646C21.7822 0.439671 21.7622 0.457695 21.7427 0.476861C21.7205 0.498536 21.6992 0.521124 21.6781 0.54394C21.6675 0.555349 21.6563 0.565389 21.6462 0.577025C21.6401 0.58387 21.6354 0.5914 21.6296 0.598245C21.6085 0.623115 21.5888 0.649125 21.569 0.675363C21.5547 0.694529 21.5398 0.713694 21.5264 0.733316C21.5089 0.758871 21.4927 0.78511 21.4766 0.811577C21.4633 0.833252 21.4496 0.854699 21.4375 0.876831C21.4234 0.902385 21.411 0.928624 21.3983 0.954863C21.3866 0.97882 21.3745 1.00278 21.3639 1.02719C21.3529 1.05297 21.3433 1.07967 21.3336 1.10591C21.324 1.13169 21.3141 1.15724 21.3058 1.18325C21.2975 1.20949 21.2908 1.23619 21.2836 1.26288C21.2764 1.29026 21.2688 1.31741 21.2627 1.34502C21.2571 1.3708 21.2533 1.39704 21.2488 1.42305C21.2439 1.45272 21.2389 1.48238 21.2354 1.51204C21.2324 1.53668 21.2311 1.56178 21.2293 1.58687C21.227 1.61882 21.225 1.65076 21.2246 1.68293C21.2244 1.69229 21.2232 1.70141 21.2232 1.71077V12.2638C21.2232 13.2091 21.9765 13.975 22.9061 13.975C23.8357 13.975 24.589 13.2091 24.589 12.2638V5.51129L39.5512 18.9814C39.4731 19.0373 39.398 19.0991 39.3279 19.1701L24.5888 34.1574V22.9117C24.5888 21.9664 23.8355 21.2005 22.9059 21.2005C21.9763 21.2005 21.223 21.9664 21.223 22.9117V25.0026H12.5281C11.5985 25.0026 10.8452 25.7685 10.8452 26.7138C10.8452 27.6591 11.5985 28.425 12.5281 28.425H21.223V38.2888C21.223 39.2341 21.9763 40 22.9059 40H75.9168C75.9722 40 76.0276 39.997 76.0828 39.9916C76.1086 39.9891 76.1336 39.984 76.1589 39.9804C76.1881 39.9763 76.2168 39.9728 76.2455 39.9671ZM74.2341 34.1577L59.4947 19.1703C59.4853 19.1607 59.4752 19.1527 59.4656 19.1436L70.5464 9.58423C71.255 8.97275 71.342 7.89308 70.7407 7.17231C70.1398 6.452 69.078 6.36302 68.3687 6.97473L49.4349 23.3089L27.3456 3.42268H74.2341V34.1577ZM41.7082 21.5906C41.8283 21.4686 41.9256 21.3326 42.0017 21.1879L48.2959 26.8544C48.6141 27.1407 49.0126 27.2845 49.4116 27.2845C49.7989 27.2845 50.1859 27.1492 50.5005 26.8781L56.915 21.3442C56.9733 21.4309 57.0391 21.5138 57.1147 21.5906L71.8539 36.578H26.9691L41.7082 21.5906Z" fill="#F47521"/>
<path d="M1.68289 19.4889H30.105C31.0347 19.4889 31.7879 18.7229 31.7879 17.7776C31.7879 16.8324 31.0347 16.0664 30.105 16.0664H1.68289C0.753259 16.0664 0 16.8324 0 17.7776C0 18.7229 0.753259 19.4889 1.68289 19.4889Z" fill="#F47521"/>
<path d="M4.6282 10.0586H17.3901C18.3197 10.0586 19.073 9.29261 19.073 8.34733C19.073 7.40205 18.3197 6.63611 17.3901 6.63611H4.6282C3.69857 6.63611 2.94531 7.40205 2.94531 8.34733C2.94531 9.29261 3.69857 10.0586 4.6282 10.0586Z" fill="#F47521"/>
<path d="M14.024 32.2281H1.68289C0.753259 32.2281 0 32.9941 0 33.9394C0 34.8847 0.753259 35.6506 1.68289 35.6506H14.024C14.9537 35.6506 15.7069 34.8847 15.7069 33.9394C15.7069 32.9941 14.9537 32.2281 14.024 32.2281Z" fill="#F47521"/>
</svg>
