<svg width="25" height="25" viewBox="0 0 25 25" fill="none" xmlns="http://www.w3.org/2000/svg">
<g clip-path="url(#clip0)">
<path d="M12.4997 24.4793C19.1156 24.4793 24.4788 19.1161 24.4788 12.5002C24.4788 5.88425 19.1156 0.520996 12.4997 0.520996C5.88376 0.520996 0.520508 5.88425 0.520508 12.5002C0.520508 19.1161 5.88376 24.4793 12.4997 24.4793Z" fill="white"/>
<path d="M12.5 0C10.0277 0 7.61099 0.733112 5.55538 2.10663C3.49976 3.48015 1.89761 5.43238 0.951511 7.71646C0.00541608 10.0005 -0.242126 12.5139 0.24019 14.9386C0.722505 17.3634 1.91301 19.5907 3.66117 21.3388C5.40933 23.087 7.63661 24.2775 10.0614 24.7598C12.4861 25.2421 14.9995 24.9946 17.2835 24.0485C19.5676 23.1024 21.5199 21.5002 22.8934 19.4446C24.2669 17.389 25 14.9723 25 12.5C24.9962 9.18596 23.678 6.00874 21.3347 3.66535C18.9913 1.32197 15.814 0.00379083 12.5 0V0ZM12.5 23.9583C10.2338 23.9583 8.01841 23.2863 6.1341 22.0273C4.24978 20.7682 2.78114 18.9787 1.91389 16.8849C1.04663 14.7912 0.819719 12.4873 1.26184 10.2646C1.70396 8.04189 2.79526 6.00021 4.39774 4.39774C6.00022 2.79526 8.0419 1.70396 10.2646 1.26184C12.4873 0.819713 14.7912 1.04663 16.8849 1.91388C18.9787 2.78113 20.7682 4.24978 22.0273 6.13409C23.2863 8.0184 23.9583 10.2338 23.9583 12.5C23.9549 15.5379 22.7466 18.4504 20.5985 20.5985C18.4504 22.7466 15.5379 23.9549 12.5 23.9583Z" fill="#6AAE19"/>
<path d="M12.5003 19.7917C10.9814 19.7899 9.52514 19.1858 8.45109 18.1117C7.37703 17.0377 6.77288 15.5814 6.77116 14.0625H5.72949C5.72949 15.8582 6.44285 17.5804 7.71262 18.8502C8.9824 20.12 10.7046 20.8333 12.5003 20.8333C14.2961 20.8333 16.0183 20.12 17.288 18.8502C18.5578 17.5804 19.2712 15.8582 19.2712 14.0625H18.2295C18.2278 15.5814 17.6236 17.0377 16.5496 18.1117C15.4755 19.1858 14.0193 19.7899 12.5003 19.7917Z" fill="#6AAE19"/>
<path d="M8.33366 8.33317C8.74792 8.33362 9.14509 8.49838 9.43801 8.79131C9.73094 9.08424 9.89571 9.4814 9.89616 9.89566H10.9378C10.9378 9.205 10.6635 8.54262 10.1751 8.05424C9.68671 7.56587 9.02433 7.2915 8.33366 7.2915C7.64299 7.2915 6.98061 7.56587 6.49224 8.05424C6.00386 8.54262 5.72949 9.205 5.72949 9.89566H6.77116C6.77161 9.4814 6.93638 9.08424 7.2293 8.79131C7.52223 8.49838 7.9194 8.33362 8.33366 8.33317Z" fill="#6AAE19"/>
<path d="M16.6667 7.2915C15.9762 7.29231 15.3143 7.56694 14.8261 8.05514C14.3379 8.54334 14.0633 9.20525 14.0625 9.89566H15.1042C15.1042 9.48126 15.2688 9.08384 15.5618 8.79081C15.8548 8.49779 16.2523 8.33317 16.6667 8.33317C17.0811 8.33317 17.4785 8.49779 17.7715 8.79081C18.0645 9.08384 18.2292 9.48126 18.2292 9.89566H19.2708C19.27 9.20525 18.9954 8.54334 18.5072 8.05514C18.019 7.56694 17.3571 7.29231 16.6667 7.2915Z" fill="#6AAE19"/>
</g>
<defs>
<clipPath id="clip0">
<rect width="25" height="25" fill="white"/>
</clipPath>
</defs>
</svg>
