<svg width="13" height="13" viewBox="0 0 13 13" fill="none" xmlns="http://www.w3.org/2000/svg">
	<path d="M6.5 0C2.91017 0 0 2.91014 0 6.5C0 10.0899 2.91017 13 6.5 13C10.0898 13 13 10.0898 13 6.5C13 2.91017 10.0899 0 6.5 0ZM9.91009 3.08991C11.6255 4.80528 11.7448 7.42711 10.452 9.26588L3.73409 2.548C5.57412 1.2544 8.19566 1.37551 9.91009 3.08991ZM3.08991 9.91009C1.37454 8.19472 1.25523 5.57288 2.54797 3.73412L9.26591 10.452C7.42591 11.7456 4.80434 11.6245 3.08991 9.91009Z" fill="#4A4A4A"/>
</svg>
