<svg width="13" height="13" viewBox="0 0 13 13" fill="none" xmlns="http://www.w3.org/2000/svg">
	<path d="M12.1293 5.52729L12.7901 6.17141C13.07 6.44415 13.07 6.88517 12.7901 7.15501L7.00607 12.7954C6.72624 13.0682 6.27376 13.0682 5.99691 12.7954L0.209869 7.15501C-0.0699565 6.88227 -0.0699565 6.44125 0.209869 6.17141L0.870735 5.52729C1.15354 5.25165 1.61495 5.25745 1.8918 5.53889L5.30925 9.03515V0.696351C5.30925 0.310456 5.62778 0 6.0237 0H6.9763C7.37222 0 7.69075 0.310456 7.69075 0.696351V9.03515L11.1082 5.53889C11.385 5.25455 11.8465 5.24874 12.1293 5.52729Z" fill="#6AAE19"/>
</svg>
