<svg width="139" height="130" viewBox="0 0 139 130" fill="none" xmlns="http://www.w3.org/2000/svg">
	<path d="M10 33L26.5 10.5L119.5 19.5L135.5 43.5L136.5 61.5L130.5 68L11 74L10 33Z" fill="#F5F5F5"/>
	<path d="M138.983 46.7935H138.997C138.997 41.9675 137.107 37.5828 134.034 34.3125L134.04 34.3071L107.33 0H30.4862L4.54636 35.0029L4.55748 35.014C2.10353 37.9171 0.594366 41.6063 0.334246 45.6324C0.139831 46.0101 0 46.4181 0 46.873V92.4067C0 93.9212 1.22714 95.1457 2.739 95.1457H136.261C137.776 95.1457 139 93.9216 139 92.4067V46.873C139 46.8457 138.983 46.8208 138.983 46.7935ZM32.9677 5.478H104.934L121.238 28.5585C121.066 28.5531 120.901 28.5312 120.726 28.5312H87.8734V36.7422C87.8734 46.0654 78.0846 44.0494 75.0831 44.0494H64.144C61.1422 44.0494 51.3537 46.0654 51.3537 36.7422V28.5312H18.4981C18.1558 28.5312 17.8215 28.5642 17.4819 28.5804L32.9677 5.478ZM133.522 89.6677H5.48036V46.873C5.48036 46.8457 5.46655 46.8211 5.46385 46.7935H5.70746C5.70746 39.7436 11.4452 34.0086 18.4978 34.0086H45.8753V36.7418C45.8753 46.1718 53.0458 49.5268 64.1436 49.5268H75.0828C86.1833 49.5268 93.3511 46.1718 93.3511 36.7418V34.0086H120.731C124.256 34.0086 127.453 35.4409 129.769 37.7554L129.775 37.7607C132.089 40.0752 133.519 43.2687 133.519 46.7935H133.538C133.538 46.8208 133.522 46.8454 133.522 46.873C133.522 46.873 133.522 89.6677 133.522 89.6677Z" fill="#D3D8DD"/>
	<path d="M26.0985 111.864H29.2665L37.0905 124.488H37.1385V111.864H39.9945V129H36.8265L29.0265 116.4H28.9545V129H26.0985V111.864ZM48.8428 129.336C47.8508 129.336 46.9628 129.176 46.1788 128.856C45.4108 128.52 44.7548 128.064 44.2108 127.488C43.6828 126.912 43.2748 126.224 42.9868 125.424C42.7148 124.624 42.5788 123.744 42.5788 122.784C42.5788 121.84 42.7148 120.968 42.9868 120.168C43.2748 119.368 43.6828 118.68 44.2108 118.104C44.7548 117.528 45.4108 117.08 46.1788 116.76C46.9628 116.424 47.8508 116.256 48.8428 116.256C49.8348 116.256 50.7148 116.424 51.4828 116.76C52.2668 117.08 52.9228 117.528 53.4508 118.104C53.9948 118.68 54.4028 119.368 54.6748 120.168C54.9628 120.968 55.1068 121.84 55.1068 122.784C55.1068 123.744 54.9628 124.624 54.6748 125.424C54.4028 126.224 53.9948 126.912 53.4508 127.488C52.9228 128.064 52.2668 128.52 51.4828 128.856C50.7148 129.176 49.8348 129.336 48.8428 129.336ZM48.8428 127.176C49.4508 127.176 49.9788 127.048 50.4268 126.792C50.8748 126.536 51.2428 126.2 51.5308 125.784C51.8188 125.368 52.0268 124.904 52.1548 124.392C52.2988 123.864 52.3708 123.328 52.3708 122.784C52.3708 122.256 52.2988 121.728 52.1548 121.2C52.0268 120.672 51.8188 120.208 51.5308 119.808C51.2428 119.392 50.8748 119.056 50.4268 118.8C49.9788 118.544 49.4508 118.416 48.8428 118.416C48.2348 118.416 47.7068 118.544 47.2588 118.8C46.8108 119.056 46.4428 119.392 46.1548 119.808C45.8668 120.208 45.6508 120.672 45.5068 121.2C45.3788 121.728 45.3148 122.256 45.3148 122.784C45.3148 123.328 45.3788 123.864 45.5068 124.392C45.6508 124.904 45.8668 125.368 46.1548 125.784C46.4428 126.2 46.8108 126.536 47.2588 126.792C47.7068 127.048 48.2348 127.176 48.8428 127.176ZM64.4451 111.864H71.5491C72.8611 111.864 73.9971 112.088 74.9571 112.536C75.9171 112.984 76.7011 113.6 77.3091 114.384C77.9171 115.152 78.3651 116.056 78.6531 117.096C78.9571 118.136 79.1091 119.248 79.1091 120.432C79.1091 121.616 78.9571 122.728 78.6531 123.768C78.3651 124.808 77.9171 125.72 77.3091 126.504C76.7011 127.272 75.9171 127.88 74.9571 128.328C73.9971 128.776 72.8611 129 71.5491 129H64.4451V111.864ZM67.4451 126.552H70.3971C71.5651 126.552 72.5171 126.4 73.2531 126.096C74.0051 125.776 74.5891 125.344 75.0051 124.8C75.4371 124.24 75.7251 123.592 75.8691 122.856C76.0291 122.104 76.1091 121.296 76.1091 120.432C76.1091 119.568 76.0291 118.768 75.8691 118.032C75.7251 117.28 75.4371 116.632 75.0051 116.088C74.5891 115.528 74.0051 115.096 73.2531 114.792C72.5171 114.472 71.5651 114.312 70.3971 114.312H67.4451V126.552ZM91.7734 126.24C91.7734 126.576 91.8134 126.816 91.8934 126.96C91.9894 127.104 92.1654 127.176 92.4214 127.176C92.5014 127.176 92.5974 127.176 92.7094 127.176C92.8214 127.176 92.9494 127.16 93.0934 127.128V129.024C92.9974 129.056 92.8694 129.088 92.7094 129.12C92.5654 129.168 92.4134 129.208 92.2534 129.24C92.0934 129.272 91.9334 129.296 91.7734 129.312C91.6134 129.328 91.4774 129.336 91.3654 129.336C90.8054 129.336 90.3414 129.224 89.9734 129C89.6054 128.776 89.3654 128.384 89.2534 127.824C88.7094 128.352 88.0374 128.736 87.2374 128.976C86.4534 129.216 85.6934 129.336 84.9574 129.336C84.3974 129.336 83.8614 129.256 83.3494 129.096C82.8374 128.952 82.3814 128.736 81.9814 128.448C81.5974 128.144 81.2854 127.768 81.0454 127.32C80.8214 126.856 80.7094 126.32 80.7094 125.712C80.7094 124.944 80.8454 124.32 81.1174 123.84C81.4054 123.36 81.7734 122.984 82.2214 122.712C82.6854 122.44 83.1974 122.248 83.7574 122.136C84.3334 122.008 84.9094 121.912 85.4854 121.848C85.9814 121.752 86.4534 121.688 86.9014 121.656C87.3494 121.608 87.7414 121.536 88.0774 121.44C88.4294 121.344 88.7014 121.2 88.8934 121.008C89.1014 120.8 89.2054 120.496 89.2054 120.096C89.2054 119.744 89.1174 119.456 88.9414 119.232C88.7814 119.008 88.5734 118.84 88.3174 118.728C88.0774 118.6 87.8054 118.52 87.5014 118.488C87.1974 118.44 86.9094 118.416 86.6374 118.416C85.8694 118.416 85.2374 118.576 84.7414 118.896C84.2454 119.216 83.9654 119.712 83.9014 120.384H81.1654C81.2134 119.584 81.4054 118.92 81.7414 118.392C82.0774 117.864 82.5014 117.44 83.0134 117.12C83.5414 116.8 84.1334 116.576 84.7894 116.448C85.4454 116.32 86.1174 116.256 86.8054 116.256C87.4134 116.256 88.0134 116.32 88.6054 116.448C89.1974 116.576 89.7254 116.784 90.1894 117.072C90.6694 117.36 91.0534 117.736 91.3414 118.2C91.6294 118.648 91.7734 119.2 91.7734 119.856V126.24ZM89.0374 122.784C88.6214 123.056 88.1094 123.224 87.5014 123.288C86.8934 123.336 86.2854 123.416 85.6774 123.528C85.3894 123.576 85.1094 123.648 84.8374 123.744C84.5654 123.824 84.3254 123.944 84.1174 124.104C83.9094 124.248 83.7414 124.448 83.6134 124.704C83.5014 124.944 83.4454 125.24 83.4454 125.592C83.4454 125.896 83.5334 126.152 83.7094 126.36C83.8854 126.568 84.0934 126.736 84.3334 126.864C84.5894 126.976 84.8614 127.056 85.1494 127.104C85.4534 127.152 85.7254 127.176 85.9654 127.176C86.2694 127.176 86.5974 127.136 86.9494 127.056C87.3014 126.976 87.6294 126.84 87.9334 126.648C88.2534 126.456 88.5174 126.216 88.7254 125.928C88.9334 125.624 89.0374 125.256 89.0374 124.824V122.784ZM93.4693 116.592H95.5333V112.872H98.2693V116.592H100.741V118.632H98.2693V125.256C98.2693 125.544 98.2773 125.792 98.2933 126C98.3253 126.208 98.3813 126.384 98.4613 126.528C98.5573 126.672 98.6933 126.784 98.8693 126.864C99.0453 126.928 99.2853 126.96 99.5893 126.96C99.7813 126.96 99.9733 126.96 100.165 126.96C100.357 126.944 100.549 126.912 100.741 126.864V128.976C100.437 129.008 100.141 129.04 99.8533 129.072C99.5653 129.104 99.2693 129.12 98.9653 129.12C98.2453 129.12 97.6613 129.056 97.2133 128.928C96.7813 128.784 96.4373 128.584 96.1813 128.328C95.9413 128.056 95.7733 127.72 95.6773 127.32C95.5973 126.92 95.5493 126.464 95.5333 125.952V118.632H93.4693V116.592ZM113.102 126.24C113.102 126.576 113.142 126.816 113.222 126.96C113.318 127.104 113.494 127.176 113.75 127.176C113.83 127.176 113.926 127.176 114.038 127.176C114.15 127.176 114.278 127.16 114.422 127.128V129.024C114.326 129.056 114.198 129.088 114.038 129.12C113.894 129.168 113.742 129.208 113.582 129.24C113.422 129.272 113.262 129.296 113.102 129.312C112.942 129.328 112.806 129.336 112.694 129.336C112.134 129.336 111.67 129.224 111.302 129C110.934 128.776 110.694 128.384 110.582 127.824C110.038 128.352 109.366 128.736 108.566 128.976C107.782 129.216 107.022 129.336 106.286 129.336C105.726 129.336 105.19 129.256 104.678 129.096C104.166 128.952 103.71 128.736 103.31 128.448C102.926 128.144 102.614 127.768 102.374 127.32C102.15 126.856 102.038 126.32 102.038 125.712C102.038 124.944 102.174 124.32 102.446 123.84C102.734 123.36 103.102 122.984 103.55 122.712C104.014 122.44 104.526 122.248 105.086 122.136C105.662 122.008 106.238 121.912 106.814 121.848C107.31 121.752 107.782 121.688 108.23 121.656C108.678 121.608 109.07 121.536 109.406 121.44C109.758 121.344 110.03 121.2 110.222 121.008C110.43 120.8 110.534 120.496 110.534 120.096C110.534 119.744 110.446 119.456 110.27 119.232C110.11 119.008 109.902 118.84 109.646 118.728C109.406 118.6 109.134 118.52 108.83 118.488C108.526 118.44 108.238 118.416 107.966 118.416C107.198 118.416 106.566 118.576 106.07 118.896C105.574 119.216 105.294 119.712 105.23 120.384H102.494C102.542 119.584 102.734 118.92 103.07 118.392C103.406 117.864 103.83 117.44 104.342 117.12C104.87 116.8 105.462 116.576 106.118 116.448C106.774 116.32 107.446 116.256 108.134 116.256C108.742 116.256 109.342 116.32 109.934 116.448C110.526 116.576 111.054 116.784 111.518 117.072C111.998 117.36 112.382 117.736 112.67 118.2C112.958 118.648 113.102 119.2 113.102 119.856V126.24ZM110.366 122.784C109.95 123.056 109.438 123.224 108.83 123.288C108.222 123.336 107.614 123.416 107.006 123.528C106.718 123.576 106.438 123.648 106.166 123.744C105.894 123.824 105.654 123.944 105.446 124.104C105.238 124.248 105.07 124.448 104.942 124.704C104.83 124.944 104.774 125.24 104.774 125.592C104.774 125.896 104.862 126.152 105.038 126.36C105.214 126.568 105.422 126.736 105.662 126.864C105.918 126.976 106.19 127.056 106.478 127.104C106.782 127.152 107.054 127.176 107.294 127.176C107.598 127.176 107.926 127.136 108.278 127.056C108.63 126.976 108.958 126.84 109.262 126.648C109.582 126.456 109.846 126.216 110.054 125.928C110.262 125.624 110.366 125.256 110.366 124.824V122.784Z" fill="#D3D8DD"/>
</svg>
