<svg width="143" height="22" viewBox="0 0 143 22" fill="none" xmlns="http://www.w3.org/2000/svg">
<path fill-rule="evenodd" clip-rule="evenodd" d="M18.7993 7.59849C18.7988 7.59872 18.7988 7.59918 18.7988 7.60011V15.8331H31.698V7.59965C31.698 7.59918 31.6975 7.59849 31.6975 7.59802L27.0983 10.9044L26.6083 11.2564L26.4742 11.3531L26.3943 11.4103L26.378 11.4221L25.9497 11.73C25.9487 11.731 25.9478 11.731 25.9469 11.7314C25.946 11.7314 25.945 11.7319 25.9441 11.7324C25.9441 11.7331 25.9439 11.734 25.9439 11.7351V11.7379C25.6772 11.8768 25.4143 11.9102 25.1898 11.8977C25.092 11.8926 25.0051 11.8773 24.9241 11.8596C24.6972 11.8093 24.5476 11.73 24.5476 11.73L23.9668 11.3129L23.3987 10.9044L21.0989 9.25088L18.7993 7.59802V7.59849Z" fill="#F47521"/>
<path fill-rule="evenodd" clip-rule="evenodd" d="M25.1088 10.5193C25.132 10.536 25.1491 10.5603 25.1672 10.5833H25.3298C25.3474 10.5603 25.3643 10.536 25.3882 10.5193L31.1247 6.39517C31.0186 6.31704 30.9016 6.25815 30.7774 6.2192C30.6761 6.18697 30.5705 6.16772 30.4612 6.16772H20.0354C19.7912 6.16772 19.5639 6.25305 19.3723 6.39517L22.7358 8.81382L25.1088 10.5193Z" fill="#F47521"/>
<mask id="mask0" mask-type="alpha" maskUnits="userSpaceOnUse" x="4" y="0" width="28" height="4">
<path fill-rule="evenodd" clip-rule="evenodd" d="M4.5647 6.10352e-05H31.8508V3.59345H4.5647V6.10352e-05Z" fill="white"/>
</mask>
<g mask="url(#mask0)">
<path fill-rule="evenodd" clip-rule="evenodd" d="M31.5396 0H4.87607C4.70416 0 4.5647 0.141892 4.5647 0.317402V3.27557C4.5647 3.45108 4.70416 3.59343 4.87607 3.59343H31.5392C31.7113 3.59343 31.8508 3.45108 31.8508 3.27557V0.316938C31.8508 0.141892 31.7113 0 31.5396 0Z" fill="#004CBA"/>
</g>
<mask id="mask1" mask-type="alpha" maskUnits="userSpaceOnUse" x="4" y="18" width="28" height="4">
<path fill-rule="evenodd" clip-rule="evenodd" d="M4.5647 18.3601H31.8508V21.9535H4.5647V18.3601Z" fill="white"/>
</mask>
<g mask="url(#mask1)">
<path fill-rule="evenodd" clip-rule="evenodd" d="M31.5396 18.3601H4.87607C4.70416 18.3601 4.5647 18.502 4.5647 18.6775V21.6357C4.5647 21.8112 4.70416 21.9535 4.87607 21.9535H31.5392C31.7113 21.9535 31.8508 21.8112 31.8508 21.6361V18.6775C31.8508 18.502 31.7113 18.3601 31.5396 18.3601Z" fill="#004CBA"/>
</g>
<path fill-rule="evenodd" clip-rule="evenodd" d="M15.9095 12.2404H10.7101C10.5361 12.2404 10.3948 12.3841 10.3948 12.5619V15.5117C10.3948 15.6896 10.5361 15.8333 10.7101 15.8333H15.9095C16.0835 15.8333 16.2248 15.6896 16.2248 15.5117V12.5619C16.2248 12.3841 16.0835 12.2404 15.9095 12.2404Z" fill="#004CBA"/>
<path fill-rule="evenodd" clip-rule="evenodd" d="M16.2248 9.3944V6.43902C16.2248 6.26281 16.0851 6.12 15.9123 6.12H0.312296C0.139468 6.12 0 6.26281 0 6.43902V9.3944C0 9.57061 0.139468 9.71319 0.312296 9.71319H15.9123C16.0851 9.71319 16.2248 9.57061 16.2248 9.3944Z" fill="#004CBA"/>
<path fill-rule="evenodd" clip-rule="evenodd" d="M111.781 13.0483H110.113C110.046 13.0483 110.001 12.9795 110.027 12.9166L110.861 10.8446C110.892 10.7655 111.002 10.7655 111.033 10.8446L111.868 12.9166C111.893 12.9795 111.847 13.0483 111.781 13.0483ZM117.363 17.3212L117.3 17.1824L112.603 6.81871L111.508 4.40214C111.492 4.37293 111.473 4.34905 111.452 4.32934C111.328 4.16102 111.147 4.05182 110.943 4.05182C110.656 4.05182 110.412 4.26396 110.315 4.56119L109.292 6.81824L104.595 17.1824L104.532 17.3212C104.454 17.494 104.514 17.9271 104.719 17.9271C104.861 17.9271 105.035 17.9275 105.223 17.9282C106.352 17.9317 107.693 17.9451 107.693 17.9451C107.983 17.9451 108.111 17.925 108.192 17.7822L108.95 15.8965H112.945L113.704 17.7822C113.784 17.925 113.912 17.9451 114.202 17.9451C114.202 17.9451 115.543 17.9317 116.671 17.9282C116.861 17.9275 117.034 17.9271 117.176 17.9271C117.381 17.9271 117.441 17.494 117.363 17.3212Z" fill="#F47521"/>
<path fill-rule="evenodd" clip-rule="evenodd" d="M125.146 14.7745C125.039 14.7745 124.933 14.7664 124.83 14.7518C124.734 14.7724 124.635 14.784 124.533 14.784H123.178V7.12044H124.842C124.882 7.12044 124.92 7.12856 124.959 7.1325C125.022 7.12786 125.083 7.12044 125.146 7.12044C126.775 7.12044 128.095 8.83381 128.095 10.9473C128.095 13.0607 126.775 14.7745 125.146 14.7745ZM124.417 4.16644L124.021 4.16899L122.818 4.1676H119.992C119.788 4.1676 119.621 4.33824 119.621 4.54644V17.4447C119.621 17.6529 119.788 17.8235 119.992 17.8235H120.186V17.8627H124.417C129.214 17.6969 131.286 14.1387 131.289 11.025C131.286 7.91104 129.214 4.33222 124.417 4.16644Z" fill="#F47521"/>
<mask id="mask2" mask-type="alpha" maskUnits="userSpaceOnUse" x="133" y="3" width="10" height="15">
<path fill-rule="evenodd" clip-rule="evenodd" d="M133.728 3.87286H142.873V17.9781H133.728V3.87286Z" fill="white"/>
</mask>
<g mask="url(#mask2)">
<path fill-rule="evenodd" clip-rule="evenodd" d="M139.643 9.93954L138.828 9.50297C138.828 9.50297 136.577 8.44991 137.023 7.26029C137.47 6.07113 139.531 7.00549 139.531 7.00549L140.773 7.65188C140.773 7.65188 141.153 7.98459 141.429 7.57329C141.671 7.21276 142.305 6.28026 142.458 6.05537C142.484 6.01619 142.497 5.97469 142.498 5.92716C142.501 5.76903 142.453 5.40132 142.006 5.07627C141.419 4.64874 140.154 3.7953 137.73 3.87854C135.306 3.96154 133.936 6.20167 133.828 7.04444C133.741 7.72329 133.053 10.0024 136.99 11.9123L137.805 12.3489C137.805 12.3489 140.056 13.402 139.609 14.5911C139.162 15.7805 137.102 14.8464 137.102 14.8464L135.545 14.0929C135.545 14.0929 135.164 13.7602 134.889 14.1715C134.647 14.532 134.122 15.4508 133.969 15.6755C133.942 15.7151 133.79 15.937 133.789 15.9845C133.785 16.2864 133.973 16.33 134.42 16.6546C135.008 17.0821 136.478 18.0561 138.903 17.9731C141.327 17.8899 142.791 15.5412 142.805 14.807C142.819 14.0734 143.58 11.849 139.643 9.93954Z" fill="#F47521"/>
</g>
<path fill-rule="evenodd" clip-rule="evenodd" d="M67.6276 9.86281H66.5086C66.4069 9.86281 66.3247 9.77888 66.3247 9.67547V7.76944C66.3247 7.66581 66.4069 7.58211 66.5086 7.58211H67.2458C67.2458 7.58211 68.593 7.51534 68.593 8.87467C68.5939 8.89553 68.5939 8.91617 68.5934 8.93611C68.5851 9.45823 68.1403 9.86281 67.6276 9.86281ZM67.6276 15.1908H66.5086C66.4069 15.1908 66.3247 15.1066 66.3247 15.0032V13.0974C66.3247 12.9935 66.4069 12.9098 66.5086 12.9098H67.2458C67.2458 12.9098 68.593 12.8431 68.593 14.2022C68.5939 14.2233 68.5939 14.2439 68.5934 14.2638C68.5851 14.786 68.1403 15.1908 67.6276 15.1908ZM70.7341 11.4543C71.2246 11.191 72.3155 10.3904 72.2715 8.47461C72.2715 4.22667 68.0585 4.4344 68.0585 4.4344H65.9813C65.9508 4.42583 65.9209 4.41516 65.8877 4.41516H63.062C62.8572 4.41516 62.6899 4.58534 62.6899 4.794V17.6918C62.6899 17.9004 62.8572 18.0706 63.062 18.0706H65.8877C65.9033 18.0706 65.9158 18.0634 65.9306 18.062H68.5731C70.4661 18.062 72.8363 17.784 72.8363 14.9142C72.8363 12.9607 71.8255 11.9632 70.7341 11.4543Z" fill="#004CBA"/>
<path fill-rule="evenodd" clip-rule="evenodd" d="M43.6907 4.41516H40.864C40.6602 4.41516 40.4927 4.58534 40.4927 4.794V17.6918C40.4927 17.9004 40.6602 18.0706 40.864 18.0706H43.6907C43.8946 18.0706 44.0616 17.9004 44.0616 17.6918V4.794C44.0616 4.58534 43.8946 4.41516 43.6907 4.41516Z" fill="#004CBA"/>
<path fill-rule="evenodd" clip-rule="evenodd" d="M101.775 5.12166V5.1212L101.866 4.98209C101.979 4.80867 102.006 4.37372 101.801 4.37372C101.658 4.37372 101.486 4.37325 101.297 4.37256C100.169 4.36908 98.4207 4.35587 98.4207 4.35587C98.1306 4.35587 97.9974 4.37604 97.8895 4.51955C97.8816 4.52975 97.8728 4.53555 97.8658 4.54691L95.6911 7.88762L93.4223 4.40154C93.3139 4.25779 93.1816 4.23785 92.8904 4.23785C92.8904 4.23785 91.1424 4.25107 90.0151 4.25501C89.8268 4.25547 89.6535 4.25571 89.5105 4.25571C89.3062 4.25571 89.3328 4.69066 89.4452 4.86431L89.5365 5.00365L93.5525 11.1739L89.5453 17.3315C89.5404 17.3378 89.5404 17.3459 89.5365 17.3529L89.4452 17.4922C89.3328 17.6661 89.3062 18.101 89.511 18.101C89.6535 18.101 89.8268 18.1015 90.0151 18.102C91.1424 18.1057 92.8909 18.1187 92.8909 18.1187C93.1816 18.1187 93.3139 18.0985 93.4221 17.9552C93.4302 17.945 93.439 17.9394 93.4464 17.9279L95.6976 14.4691L97.8895 17.8372C97.9974 17.9809 98.1306 18.0007 98.4207 18.0007C98.4207 18.0007 100.169 17.9877 101.297 17.984C101.486 17.9835 101.658 17.983 101.801 17.983C102.006 17.983 101.979 17.5483 101.866 17.3747L101.775 17.2349L97.8359 11.1829L101.767 5.14392C101.771 5.1365 101.771 5.12839 101.775 5.12166Z" fill="#004CBA"/>
<path fill-rule="evenodd" clip-rule="evenodd" d="M81.205 15.0264C79.1677 15.0264 77.5165 13.3435 77.5165 11.2677C77.5165 9.19127 79.1677 7.50828 81.205 7.50828C83.2421 7.50828 84.8935 9.19127 84.8935 11.2677C84.8935 13.3435 83.2421 15.0264 81.205 15.0264ZM81.2046 4.22241C77.3867 4.22241 74.2913 7.37649 74.2913 11.2676C74.2913 15.158 77.3867 18.3121 81.2046 18.3121C85.0224 18.3121 88.1176 15.158 88.1176 11.2676C88.1176 7.37649 85.0224 4.22241 81.2046 4.22241Z" fill="#004CBA"/>
<path fill-rule="evenodd" clip-rule="evenodd" d="M59.1564 4.41519H56.1871C55.9781 4.41519 55.8078 4.58908 55.8078 4.80215V11.5682L51.1334 7.01909L48.4575 4.41519L48.388 4.34773C48.3053 4.26542 48.1946 4.23528 48.0864 4.24548C48.0755 4.24432 48.0653 4.23853 48.0535 4.23853H47.6684C47.5211 4.23853 47.4004 4.36187 47.4004 4.51141V4.82881C47.4004 4.83554 47.4039 4.8411 47.4043 4.84759V17.6837C47.4043 17.8965 47.5748 18.0706 47.7843 18.0706H50.7534C50.9626 18.0706 51.1334 17.8965 51.1334 17.6837V11.2543L55.8078 15.9798V16.0128L55.9946 16.2063L57.6536 17.874C57.7949 18.0333 57.9909 18.0662 58.0847 18.0706H59.1564C59.3652 18.0706 59.5362 17.8965 59.5362 17.6837V4.80215C59.5362 4.58908 59.3652 4.41519 59.1564 4.41519Z" fill="#004CBA"/>
</svg>
