<svg width="58" height="58" viewBox="0 0 58 58" fill="none" xmlns="http://www.w3.org/2000/svg">
<g clip-path="url(#clip0)">
<path d="M28.7483 40.6C22.6583 40.6 17.1483 35.786 15.0216 28.7873C13.0883 28.7873 11.6383 26.2933 11.6383 22.9873C11.6385 22.06 11.762 21.1368 12.0056 20.242C11.7632 18.9862 11.6274 17.7121 11.5996 16.4333C11.5996 6.612 18.5983 0 28.9996 0C38.7629 0 46.3996 7.21133 46.3996 16.4333C46.3913 17.545 46.2682 18.6529 46.0323 19.7393C46.2746 20.6278 46.3982 21.5444 46.3996 22.4653C46.3996 25.7907 44.9496 28.2653 43.0163 28.2653C40.8123 35.3607 34.7996 40.6 28.7483 40.6ZM15.6983 26.6027C15.8192 26.5753 15.9447 26.5753 16.0656 26.6027C16.2064 26.6601 16.3321 26.7493 16.4327 26.8633C16.5333 26.9774 16.6062 27.1131 16.6456 27.26C18.2889 34.0073 23.1996 38.6667 28.7483 38.6667C34.2969 38.6667 39.7103 33.466 41.3536 26.8347C41.393 26.6878 41.4659 26.552 41.5665 26.438C41.6672 26.324 41.7928 26.2348 41.9336 26.1773C42.0676 26.1062 42.2169 26.0691 42.3686 26.0691C42.5203 26.0691 42.6696 26.1062 42.8036 26.1773C42.8739 26.1904 42.946 26.1904 43.0163 26.1773C43.5189 26.1773 44.4663 24.7273 44.4663 22.3107C44.4758 21.511 44.3583 20.7149 44.1183 19.952C44.0704 19.7813 44.0704 19.6007 44.1183 19.43C44.3412 18.4464 44.4578 17.4418 44.4663 16.4333C44.4244 14.459 43.9885 12.5128 43.1842 10.7092C42.38 8.90555 41.2236 7.28072 39.7829 5.93006C38.3422 4.5794 36.6462 3.53011 34.7945 2.84379C32.9427 2.15746 30.9726 1.84792 28.9996 1.93333C19.6036 1.93333 13.5329 7.61733 13.5329 16.4333C13.5417 17.6611 13.6712 18.885 13.9196 20.0873C13.9675 20.258 13.9675 20.4386 13.9196 20.6093C13.6673 21.3769 13.5368 22.1793 13.5329 22.9873C13.5329 25.3847 14.4803 26.854 14.9829 26.854C15.0604 26.8389 15.1333 26.8058 15.1956 26.7573C15.3457 26.6603 15.5196 26.6068 15.6983 26.6027Z" fill="#F47521"/>
<path d="M44.4664 21.2667H41.5664C41.3251 21.2599 41.0933 21.1713 40.9091 21.0153C39.8736 20.0315 39.1308 18.7802 38.7631 17.4C34.0172 17.0834 29.5802 14.9343 26.3897 11.4067C26.196 11.7195 25.962 12.0055 25.6937 12.2573C23.9151 13.92 20.9571 13.7267 19.1977 13.5913L18.5017 13.5333C17.7004 15.7031 17.3262 18.0074 17.3997 20.3193C17.3899 20.5708 17.2843 20.8089 17.1046 20.985C16.9249 21.1612 16.6847 21.2619 16.4331 21.2667H13.5331C13.2767 21.2667 13.0308 21.1648 12.8495 20.9835C12.6683 20.8022 12.5664 20.5564 12.5664 20.3C12.5664 20.0436 12.6683 19.7977 12.8495 19.6165C13.0308 19.4352 13.2767 19.3333 13.5331 19.3333H15.4664C15.6791 14.21 16.6457 11.6 18.3277 11.6H19.3331C20.7831 11.716 23.1997 11.8707 24.3791 10.788C24.6422 10.511 24.8451 10.1824 24.9749 9.82299C25.1046 9.46361 25.1585 9.08124 25.1331 8.69999C25.1331 8.44361 25.2349 8.19774 25.4162 8.01645C25.5975 7.83517 25.8434 7.73332 26.0997 7.73332C26.3561 7.73332 26.602 7.83517 26.7833 8.01645C26.9646 8.19774 27.0664 8.44361 27.0664 8.69999C27.0664 10.1113 32.4217 15.4667 39.6331 15.4667C39.8895 15.4667 40.1353 15.5685 40.3166 15.7498C40.4979 15.9311 40.5997 16.1769 40.5997 16.4333C40.7167 17.5272 41.2005 18.5494 41.9724 19.3333H44.4664C44.7228 19.3333 44.9687 19.4352 45.1499 19.6165C45.3312 19.7977 45.4331 20.0436 45.4331 20.3C45.4331 20.5564 45.3312 20.8022 45.1499 20.9835C44.9687 21.1648 44.7228 21.2667 44.4664 21.2667Z" fill="#F47521"/>
<path d="M24.1666 23.2H22.2333C21.9769 23.2 21.731 23.0982 21.5497 22.9169C21.3684 22.7356 21.2666 22.4897 21.2666 22.2333C21.2666 21.977 21.3684 21.7311 21.5497 21.5498C21.731 21.3685 21.9769 21.2667 22.2333 21.2667H24.1666C24.423 21.2667 24.6689 21.3685 24.8501 21.5498C25.0314 21.7311 25.1333 21.977 25.1333 22.2333C25.1333 22.4897 25.0314 22.7356 24.8501 22.9169C24.6689 23.0982 24.423 23.2 24.1666 23.2Z" fill="#F47521"/>
<path d="M35.7662 23.2H33.8329C33.5765 23.2 33.3306 23.0982 33.1493 22.9169C32.9681 22.7356 32.8662 22.4897 32.8662 22.2333C32.8662 21.977 32.9681 21.7311 33.1493 21.5498C33.3306 21.3685 33.5765 21.2667 33.8329 21.2667H35.7662C36.0226 21.2667 36.2685 21.3685 36.4497 21.5498C36.631 21.7311 36.7329 21.977 36.7329 22.2333C36.7329 22.4897 36.631 22.7356 36.4497 22.9169C36.2685 23.0982 36.0226 23.2 35.7662 23.2Z" fill="#F47521"/>
<path d="M57.0329 58H0.966184C0.820739 58.0007 0.677072 57.968 0.546317 57.9043C0.415562 57.8406 0.301231 57.7477 0.212184 57.6326C0.121338 57.5203 0.0568146 57.3891 0.0233576 57.2486C-0.0100993 57.1081 -0.0116395 56.9618 0.0188502 56.8206L1.95218 48.8167C2.14412 47.9892 2.51545 47.214 3.03995 46.5458C3.56445 45.8777 4.2293 45.3329 4.98752 44.95L17.9989 38.686C18.217 38.5829 18.4654 38.5633 18.697 38.631C18.9285 38.6987 19.1273 38.8489 19.2555 39.0533L28.9995 55.1773L38.8015 39.1307C38.9333 38.9248 39.1367 38.7753 39.3725 38.711C39.6083 38.6467 39.8595 38.6722 40.0775 38.7827L53.0695 45.5107C53.8099 45.8877 54.4606 46.4195 54.9776 47.0699C55.4946 47.7204 55.8659 48.4743 56.0662 49.2807L57.9995 56.8013C58.0316 56.9455 58.0309 57.0951 57.9975 57.239C57.964 57.3829 57.8986 57.5174 57.8062 57.6326C57.7152 57.7503 57.5977 57.8448 57.4634 57.9087C57.329 57.9725 57.1815 58.0038 57.0329 58ZM30.7202 56.0667H55.8535L54.1329 49.764C54.009 49.2287 53.7726 48.726 53.4392 48.2893C53.1058 47.8525 52.6832 47.4919 52.1995 47.2313L39.9809 40.9093L30.7202 56.0667ZM2.18418 56.0667H27.3175L18.0375 40.89L5.79952 46.7673C5.31793 47.0258 4.89662 47.3835 4.56337 47.8167C4.23011 48.2499 3.9925 48.7489 3.86618 49.2807L2.18418 56.0667Z" fill="#F47521"/>
<path d="M29.2316 34.8C25.9256 34.8 24.9009 33.3113 24.8043 33.1373C24.6904 32.9251 24.6599 32.678 24.7187 32.4444C24.7775 32.2108 24.9214 32.0076 25.1222 31.8746C25.3229 31.7416 25.5661 31.6883 25.8042 31.7251C26.0422 31.762 26.2578 31.8864 26.4089 32.074C26.4089 32.074 27.0663 32.8667 29.2316 32.8667C31.3969 32.8667 32.0736 32.074 32.0736 32.074C32.212 31.8643 32.4267 31.7167 32.6722 31.6625C32.9176 31.6084 33.1744 31.652 33.3883 31.784C33.4974 31.8527 33.5917 31.9426 33.6656 32.0483C33.7395 32.154 33.7915 32.2734 33.8185 32.3995C33.8455 32.5257 33.8471 32.6559 33.823 32.7826C33.7989 32.9093 33.7497 33.0299 33.6783 33.1373C33.5816 33.3113 32.5569 34.8 29.2316 34.8Z" fill="#F47521"/>
<path d="M10.6328 58C10.3764 58 10.1305 57.8982 9.94925 57.7169C9.76797 57.5356 9.66612 57.2897 9.66612 57.0333C9.66612 48.894 7.07545 46.1487 7.05612 46.11C6.96365 46.0232 6.88994 45.9184 6.83956 45.802C6.78918 45.6856 6.76318 45.5602 6.76318 45.4333C6.76318 45.3065 6.78918 45.181 6.83956 45.0647C6.88994 44.9483 6.96365 44.8435 7.05612 44.7567C7.23682 44.5796 7.47976 44.4803 7.73279 44.4803C7.98581 44.4803 8.22876 44.5796 8.40945 44.7567C8.54479 44.8727 11.5995 47.966 11.5995 57.0333C11.5995 57.2897 11.4976 57.5356 11.3163 57.7169C11.135 57.8982 10.8892 58 10.6328 58Z" fill="#F47521"/>
<path d="M47.3666 58C47.1102 58 46.8643 57.8982 46.683 57.7169C46.5017 57.5356 46.3999 57.2897 46.3999 57.0333C46.3999 47.966 49.4546 44.8727 49.5899 44.7373C49.6798 44.6467 49.7867 44.5748 49.9045 44.5257C50.0223 44.4766 50.1486 44.4514 50.2762 44.4514C50.4038 44.4514 50.5302 44.4766 50.648 44.5257C50.7658 44.5748 50.8727 44.6467 50.9626 44.7373C51.0526 44.8255 51.1241 44.9308 51.1729 45.047C51.2218 45.1632 51.2469 45.288 51.2469 45.414C51.2469 45.54 51.2218 45.6648 51.1729 45.781C51.1241 45.8972 51.0526 46.0025 50.9626 46.0907C50.9626 46.0907 48.3332 48.952 48.3332 57.0333C48.3332 57.2897 48.2314 57.5356 48.0501 57.7169C47.8688 57.8982 47.6229 58 47.3666 58Z" fill="#F47521"/>
<path d="M31.8995 46.4C31.7088 46.3962 31.5222 46.3429 31.3582 46.2453L28.9995 44.66L26.6409 46.2453C26.4947 46.3442 26.3243 46.4011 26.148 46.41C25.9718 46.4188 25.7965 46.3793 25.6412 46.2956C25.4858 46.212 25.3563 46.0874 25.2667 45.9354C25.1771 45.7834 25.1308 45.6098 25.1329 45.4333V41.5667C25.1308 41.3902 25.1771 41.2166 25.2667 41.0646C25.3563 40.9126 25.4858 40.788 25.6412 40.7044C25.7965 40.6207 25.9718 40.5812 26.148 40.5901C26.3243 40.5989 26.4947 40.6558 26.6409 40.7547L28.9995 42.34L31.3582 40.7547C31.5044 40.6558 31.6748 40.5989 31.851 40.5901C32.0273 40.5812 32.2026 40.6207 32.3579 40.7044C32.5133 40.788 32.6428 40.9126 32.7324 41.0646C32.822 41.2166 32.8683 41.3902 32.8662 41.5667V45.4333C32.8647 45.6068 32.8174 45.7768 32.7291 45.9262C32.6409 46.0755 32.5148 46.199 32.3635 46.284C32.2202 46.3587 32.0612 46.3985 31.8995 46.4Z" fill="#F47521"/>
<path d="M41.5667 52.2H37.7001C37.4437 52.2 37.1978 52.0981 37.0165 51.9169C36.8352 51.7356 36.7334 51.4897 36.7334 51.2333C36.7334 50.977 36.8352 50.7311 37.0165 50.5498C37.1978 50.3685 37.4437 50.2667 37.7001 50.2667H41.5667C41.8231 50.2667 42.069 50.3685 42.2503 50.5498C42.4316 50.7311 42.5334 50.977 42.5334 51.2333C42.5334 51.4897 42.4316 51.7356 42.2503 51.9169C42.069 52.0981 41.8231 52.2 41.5667 52.2Z" fill="#F47521"/>
</g>
<defs>
<clipPath id="clip0">
<rect width="58" height="58" fill="white"/>
</clipPath>
</defs>
</svg>
