<svg width="51" height="60" viewBox="0 0 51 60" fill="none" xmlns="http://www.w3.org/2000/svg">
<path d="M25.1161 34.8838C22.0383 34.8838 19.5347 37.3876 19.5347 40.4652C19.5347 43.0611 21.3161 45.2487 23.7207 45.8699V48.8373C23.7207 49.6078 24.3454 50.2326 25.1161 50.2326C25.8866 50.2326 26.5114 49.6078 26.5114 48.8373V45.8699C28.9159 45.2487 30.6974 43.061 30.6974 40.4652C30.6974 37.3877 28.1936 34.8838 25.1161 34.8838ZM25.1161 43.2559C23.5773 43.2559 22.3254 42.004 22.3254 40.4652C22.3254 38.9264 23.5773 37.6745 25.1161 37.6745C26.6548 37.6745 27.9067 38.9264 27.9067 40.4652C27.9067 42.004 26.655 43.2559 25.1161 43.2559Z" fill="#F47521"/>
<path d="M37.7179 26.5117H37.6307C36.8602 26.5117 36.2354 27.1366 36.2354 27.9071C36.2354 28.6777 36.8602 29.3024 37.6307 29.3024H37.7179C38.4884 29.3024 39.1133 28.6777 39.1133 27.9071C39.1133 27.1366 38.4884 26.5117 37.7179 26.5117Z" fill="#F47521"/>
<path d="M48.8372 57.2093H36.269C43.7415 53.2115 48.8372 45.3297 48.8372 36.2791V20.9302C48.8372 20.1597 48.2124 19.5349 47.4419 19.5349H16.7442V16.7442C16.7442 12.1278 20.4999 8.37209 25.1163 8.37209C29.2543 8.37209 32.8164 11.4564 33.4016 15.5466C33.5107 16.3095 34.2181 16.8392 34.9806 16.7301C35.7434 16.621 36.2734 15.914 36.1641 15.1513C35.7871 12.5168 34.4713 10.097 32.4592 8.33749C30.427 6.56023 27.8191 5.5814 25.1163 5.5814C18.961 5.5814 13.9535 10.589 13.9535 16.7442V19.5349H11.1628V16.7442C11.1628 9.05023 17.4223 2.7907 25.1163 2.7907C32.3862 2.7907 38.3598 8.24344 39.0116 15.4741C39.0808 16.2417 39.7617 16.8091 40.5265 16.7386C41.2941 16.6694 41.8602 15.9913 41.7911 15.2237C41.4174 11.0777 39.5173 7.23767 36.4409 4.41112C33.3452 1.56656 29.3234 0 25.1163 0C15.8835 0 8.37209 7.51144 8.37209 16.7442V19.5349H2.7907C2.02005 19.5349 1.39535 20.1597 1.39535 20.9302V36.2791C1.39535 45.3297 6.49116 53.2115 13.9635 57.2093H1.39535C0.624698 57.2093 0 57.8341 0 58.6047C0 59.3752 0.624698 60 1.39535 60H48.8372C49.6077 60 50.2326 59.3752 50.2326 58.6047C50.2326 57.8341 49.6079 57.2093 48.8372 57.2093ZM4.18605 36.2791V29.3023H33.4884C34.2589 29.3023 34.8837 28.6776 34.8837 27.907C34.8837 27.1365 34.2589 26.5116 33.4884 26.5116H4.18605V22.3256H46.0465V36.2791C46.0465 47.82 36.6572 57.2093 25.1163 57.2093C13.5752 57.2093 4.18605 47.82 4.18605 36.2791Z" fill="#004CBA"/>
</svg>
