<svg width="25" height="25" viewBox="0 0 25 25" fill="none" xmlns="http://www.w3.org/2000/svg">
<g clip-path="url(#clip0)">
<path d="M12.5003 24.4793C19.1162 24.4793 24.4795 19.1161 24.4795 12.5002C24.4795 5.88425 19.1162 0.520996 12.5003 0.520996C5.88437 0.520996 0.521118 5.88425 0.521118 12.5002C0.521118 19.1161 5.88437 24.4793 12.5003 24.4793Z" fill="white"/>
<path d="M12.5 0C10.0277 0 7.61099 0.733112 5.55538 2.10663C3.49976 3.48015 1.89761 5.43238 0.951511 7.71646C0.00541608 10.0005 -0.242126 12.5139 0.24019 14.9386C0.722505 17.3634 1.91301 19.5907 3.66117 21.3388C5.40933 23.087 7.63661 24.2775 10.0614 24.7598C12.4861 25.2421 14.9995 24.9946 17.2835 24.0485C19.5676 23.1024 21.5199 21.5002 22.8934 19.4446C24.2669 17.389 25 14.9723 25 12.5C24.9962 9.18596 23.678 6.00874 21.3347 3.66535C18.9913 1.32197 15.814 0.00379083 12.5 0V0ZM12.5 23.9583C10.2338 23.9583 8.01841 23.2863 6.1341 22.0273C4.24978 20.7682 2.78114 18.9787 1.91389 16.8849C1.04663 14.7912 0.819719 12.4873 1.26184 10.2646C1.70396 8.04189 2.79526 6.00021 4.39774 4.39774C6.00022 2.79526 8.0419 1.70396 10.2646 1.26184C12.4873 0.819713 14.7912 1.04663 16.8849 1.91388C18.9787 2.78113 20.7682 4.24978 22.0273 6.13409C23.2863 8.0184 23.9583 10.2338 23.9583 12.5C23.9549 15.5379 22.7466 18.4504 20.5985 20.5985C18.4504 22.7466 15.5379 23.9549 12.5 23.9583Z" fill="#F47521"/>
<path d="M7.29138 6.25H9.37471V10.4167H7.29138V6.25Z" fill="#F47521"/>
<path d="M15.625 6.25H17.7083V10.4167H15.625V6.25Z" fill="#F47521"/>
<path d="M6.25 17.7085H18.75V18.7502H6.25V17.7085Z" fill="#F47521"/>
</g>
<defs>
<clipPath id="clip0">
<rect width="25" height="25" fill="white"/>
</clipPath>
</defs>
</svg>
