<svg width="162" height="129" viewBox="0 0 162 129" fill="none" xmlns="http://www.w3.org/2000/svg">
<path fill-rule="evenodd" clip-rule="evenodd" d="M159.846 126.47C161.126 120.768 161.802 114.837 161.802 108.748C161.802 64.2593 125.736 28.194 81.2475 28.194C36.7587 28.194 0.693359 64.2593 0.693359 108.748C0.693359 114.837 1.36888 120.768 2.64906 126.47H159.846Z" fill="#E5E5E5"/>
<path d="M101.876 50.188L108.915 52.2294L106.306 61.2249L99.2664 59.1825L101.876 50.188Z" fill="#F47521"/>
<path d="M115.438 18.4246C105.503 15.5425 95.1118 21.2605 92.2297 31.1961C89.3476 41.1316 95.0646 51.5224 105 54.4045C114.936 57.2867 125.327 51.5686 128.21 41.6331C131.092 31.6976 125.374 21.3067 115.438 18.4246Z" fill="white"/>
<path d="M61.1408 59.1845L54.1022 61.2259L51.4924 52.2314L58.5321 50.189L61.1408 59.1845Z" fill="#F47521"/>
<path d="M68.1744 31.1961C65.2923 21.2605 54.9015 15.5425 44.9659 18.4246C35.0304 21.3077 29.3123 31.6985 32.1945 41.6341C35.0766 51.5696 45.4674 57.2867 55.403 54.4045C65.3385 51.5224 71.0565 41.1316 68.1744 31.1961Z" fill="white"/>
<path d="M74.4491 48.6137H84.7052V61.7176H74.4491V48.6137Z" fill="white"/>
<path d="M106.502 28.1035C106.502 42.5771 94.7687 54.3111 80.2941 54.3111C65.8195 54.3111 54.0854 42.5771 54.0854 28.1035C54.0854 13.6289 65.8195 1.89487 80.2941 1.89487C94.7687 1.89487 106.502 13.6289 106.502 28.1035Z" fill="#F47521"/>
<path d="M80.2941 91.3531C80.2941 91.3531 82.5646 79.8531 91.8727 79.8531C101.181 79.8531 100.386 91.3531 100.386 91.3531H80.2941Z" fill="#F47521"/>
<path d="M80.294 91.3531C80.294 91.3531 78.0235 79.8531 68.7154 79.8531C59.4062 79.8531 60.2007 91.3531 60.2007 91.3531H80.294Z" fill="#F47521"/>
<path d="M88.3917 91.3531C88.3917 95.8253 84.7662 99.4508 80.294 99.4508C75.8208 99.4508 72.1953 95.8253 72.1953 91.3531C72.1953 86.8799 75.8208 83.2544 80.294 83.2544C84.7662 83.2544 88.3917 86.8799 88.3917 91.3531Z" fill="#F47521"/>
<path d="M95.6909 93.0975H64.897C62.8035 93.0975 61.1063 94.7947 61.1063 96.8882V123.2C61.1063 125.294 62.8035 126.991 64.897 126.991H95.6909C97.7844 126.991 99.4817 125.294 99.4817 123.2V96.8882C99.4817 94.7947 97.7844 93.0975 95.6909 93.0975Z" fill="white"/>
<path d="M61.1063 109.083H99.4817V116.945H61.1063V109.083Z" fill="#F47521"/>
<path d="M101.567 100.76H59.0207C56.9272 100.76 55.23 99.0624 55.23 96.9689V94.5607C55.23 92.4672 56.9272 90.77 59.0207 90.77H101.567C103.661 90.77 105.358 92.4672 105.358 94.5607V96.9689C105.358 99.0624 103.661 100.76 101.567 100.76Z" fill="white"/>
<path d="M130.031 42.1611C133.2 31.2383 126.891 19.7737 115.967 16.6045C112.638 15.6388 109.139 15.5287 105.781 16.2711C101.306 6.67089 91.5649 0 80.294 0C75.8572 0 71.6122 1.00398 67.6759 2.98538C66.7418 3.45541 66.3652 4.59509 66.8352 5.53023C67.3062 6.46538 68.4449 6.84199 69.381 6.37098C72.7834 4.65901 76.4551 3.79073 80.294 3.79073C93.6997 3.79073 104.606 14.6968 104.606 28.1035C104.606 41.5092 93.6997 52.4153 80.294 52.4153C66.8883 52.4153 55.9812 41.5092 55.9812 28.1035C55.9812 25.1535 56.5132 22.2802 57.5182 19.5889C57.6008 19.4581 57.6706 19.3155 57.7207 19.1601C57.7483 19.0736 57.767 18.9871 57.7827 18.8996C58.9401 16.0676 60.6363 13.4549 62.8203 11.1981C63.5489 10.4459 63.5293 9.24623 62.777 8.51857C62.0238 7.78992 60.8241 7.81057 60.0965 8.56183C57.8732 10.8599 56.0855 13.4765 54.7757 16.3046C51.3714 15.5238 47.8324 15.6202 44.4389 16.6045C33.5152 19.7737 27.2061 31.2383 30.3754 42.1611C31.9104 47.4534 35.4149 51.8302 40.2421 54.4862C43.3307 56.1863 46.7252 57.0507 50.156 57.0507C50.4077 57.0507 50.6604 57.0458 50.9122 57.0369L52.281 61.7549C52.5219 62.5839 53.2781 63.1227 54.1001 63.1227C54.2752 63.1227 54.4531 63.0982 54.6292 63.047L56.5034 62.5032L62.3748 80.1068C60.1368 81.9702 58.7296 84.9851 58.3737 88.9125C55.5427 89.235 53.3351 91.6441 53.3351 94.5607V96.9689C53.3351 100.105 55.8859 102.655 59.0207 102.655H59.2105V123.201C59.2105 126.336 61.7622 128.887 64.8971 128.887H95.6919C98.8268 128.887 101.378 126.336 101.378 123.201V102.655H101.567C104.702 102.655 107.254 100.105 107.254 96.9689V94.5607C107.254 91.6441 105.046 89.235 102.214 88.9125C101.851 84.9025 100.394 81.8404 98.0726 79.9878L103.904 62.5032L105.778 63.047C105.951 63.0972 106.129 63.1218 106.306 63.1218C106.623 63.1218 106.937 63.0431 107.219 62.8877C107.66 62.6448 107.985 62.2377 108.126 61.7549L109.496 57.032C109.736 57.0399 109.974 57.0438 110.212 57.0438C119.156 57.0438 127.416 51.1733 130.031 42.1611ZM108.397 28.1035C108.397 25.2351 107.964 22.4661 107.161 19.8573C109.728 19.3824 112.379 19.5102 114.911 20.2447C123.827 22.8319 128.977 32.1892 126.39 41.1051C123.804 50.0209 114.448 55.1706 105.53 52.5844C103.115 51.8833 100.908 50.661 99.049 49.013C104.784 43.8643 108.397 36.3979 108.397 28.1035ZM82.8094 56.0929V59.8227H76.345V55.9277C77.6351 56.1096 78.9537 56.206 80.294 56.206C81.1416 56.206 81.9804 56.1667 82.8094 56.0929ZM98.402 88.8751H89.9818C89.4517 86.7432 88.2806 84.9143 86.7132 83.5936C88.2039 82.3547 89.9031 81.7489 91.8727 81.7489C96.5287 81.7479 98.0185 85.4521 98.402 88.8751ZM85.9894 88.8751H74.6694C75.6783 86.9773 77.8701 85.2614 80.3796 85.1483C82.7985 85.0382 85.0238 86.5948 85.9894 88.8751ZM68.7153 81.7479C70.7813 81.7479 72.5533 82.4176 74.0922 83.7795C72.4244 85.1286 71.153 86.9252 70.5964 88.8751H62.186C62.5685 85.4521 64.0593 81.7479 68.7153 81.7479ZM42.0691 51.1655C38.1289 48.9972 35.2694 45.4248 34.0157 41.1051C31.4295 32.1892 36.5792 22.8309 45.495 20.2447C48.092 19.4915 50.7932 19.3745 53.4098 19.8878C52.6084 22.5192 52.1905 25.2813 52.1905 28.1035C52.1905 36.3546 55.7659 43.7866 61.4476 48.9323C59.5714 50.6217 57.3323 51.8715 54.877 52.5844C50.5582 53.8372 46.0093 53.3337 42.0691 51.1655ZM54.7137 56.5364C55.1218 56.444 55.5279 56.3417 55.9331 56.2247C56.6676 56.0113 57.3874 55.7576 58.0885 55.4675L58.7916 57.8924L55.3932 58.8777L54.7137 56.5364ZM60.1466 61.4462L61.6688 61.0047C62.1516 60.865 62.5587 60.5386 62.8006 60.098C63.0435 59.6575 63.1005 59.1393 62.9609 58.6565L61.5105 53.6562C62.5607 52.9669 63.5479 52.1813 64.4585 51.3081C66.908 52.9846 69.6338 54.2846 72.5542 55.1224V61.7176C72.5542 62.7648 73.4028 63.6134 74.4491 63.6134H78.3982V81.6221C78.112 81.6919 77.8288 81.7745 77.5495 81.8679C75.1483 79.3083 72.1176 77.9582 68.7143 77.9582C67.6691 77.9582 66.6907 78.09 65.7801 78.3407L60.1466 61.4462ZM95.6909 125.096H64.8961C63.8508 125.096 63.0012 124.245 63.0012 123.201V118.84H97.5868V123.201C97.5868 124.245 96.7362 125.096 95.6909 125.096ZM97.5868 107.188H84.7052C83.658 107.188 82.8094 108.036 82.8094 109.083C82.8094 110.13 83.658 110.978 84.7052 110.978H97.5868V115.049H63.0012V110.978H77.1238C78.17 110.978 79.0186 110.13 79.0186 109.083C79.0186 108.036 78.17 107.188 77.1238 107.188H63.0012V102.655H97.5868V107.188ZM103.462 94.5607V96.9689C103.462 98.0141 102.613 98.8647 101.567 98.8647H59.0207C57.9754 98.8647 57.1248 98.0141 57.1248 96.9689V94.5607C57.1248 93.5154 57.9754 92.6658 59.0207 92.6658H101.567C102.612 92.6658 103.462 93.5154 103.462 94.5607ZM94.6408 78.2945C93.7784 78.0732 92.854 77.9572 91.8727 77.9572C88.5018 77.9572 85.5823 79.2218 83.186 81.7096C82.8595 81.6172 82.5271 81.5414 82.1889 81.4844V63.6134H84.7052C85.7515 63.6134 86.6001 62.7648 86.6001 61.7176V55.4921C90.0201 54.7055 93.2041 53.2924 96.0243 51.3798C96.9142 52.2245 97.8749 52.9856 98.8966 53.6553L97.4452 58.6565C97.1541 59.6614 97.7323 60.7126 98.7373 61.0047L100.259 61.4462L94.6408 78.2945ZM105.013 58.8777L101.615 57.8914L102.318 55.4665C103.02 55.7576 103.739 56.0113 104.474 56.2247C104.879 56.3427 105.286 56.444 105.692 56.5364L105.013 58.8777Z" fill="#004CBA"/>
<path d="M134.054 105.053L130.896 102.829L129.748 99.1391C129.566 98.551 129.108 98.0889 128.522 97.8991C127.937 97.7093 127.295 97.8165 126.802 98.1852L123.711 100.502L119.848 100.453C119.839 100.453 119.832 100.453 119.824 100.453C119.217 100.453 118.647 100.744 118.29 101.236C117.928 101.734 117.832 102.377 118.03 102.96L119.278 106.616L118.038 110.275C117.84 110.858 117.938 111.5 118.301 111.999C118.663 112.497 119.251 112.787 119.86 112.779L123.724 112.722L126.82 115.032C127.152 115.279 127.55 115.408 127.953 115.408C128.151 115.408 128.348 115.377 128.541 115.315C129.126 115.124 129.582 114.66 129.764 114.072L130.904 110.38L134.057 108.15C134.56 107.794 134.859 107.217 134.858 106.601C134.858 105.985 134.558 105.408 134.054 105.053ZM128.188 107.659C127.847 107.9 127.595 108.247 127.472 108.646L126.934 110.387L125.473 109.298C125.146 109.053 124.748 108.922 124.34 108.922C124.331 108.922 124.322 108.922 124.313 108.922L122.49 108.949L123.075 107.222C123.208 106.827 123.208 106.397 123.074 106.002L122.485 104.277L124.308 104.3H124.331C124.74 104.3 125.14 104.167 125.468 103.922L126.926 102.829L127.468 104.569C127.592 104.968 127.845 105.315 128.186 105.556L129.677 106.605L128.188 107.659Z" fill="#F47521"/>
<path d="M40.7702 99.9621L41.6365 96.3218C41.7791 95.723 41.6218 95.0917 41.2147 94.6295C40.8076 94.1684 40.1999 93.9333 39.5892 93.9992L35.8693 94.4014L32.6745 92.4524C32.1494 92.1319 31.5004 92.0866 30.935 92.3315C30.3705 92.5763 29.9585 93.0798 29.8327 93.6826L29.0657 97.3445L26.2268 99.7802C25.7587 100.18 25.5149 100.783 25.5729 101.397C25.6309 102.009 25.9829 102.556 26.5169 102.863L29.7638 104.723L31.2015 108.177C31.4384 108.746 31.937 109.164 32.5378 109.298C32.6745 109.329 32.8141 109.344 32.9518 109.344C33.4169 109.344 33.8722 109.172 34.2242 108.853L36.9972 106.341L40.726 106.04C41.3396 105.991 41.8912 105.646 42.2049 105.116C42.5186 104.586 42.555 103.937 42.3032 103.375L40.7702 99.9621ZM36.0493 102.615C35.6333 102.649 35.239 102.82 34.9292 103.1L33.6686 104.242L33.0147 102.671C32.8544 102.286 32.5702 101.964 32.2084 101.756L30.7324 100.91L32.0235 99.8028C32.3401 99.5304 32.5584 99.1617 32.645 98.7526L32.9931 97.0879L34.4454 97.9738C34.8024 98.1911 35.2223 98.2846 35.6363 98.2393L37.3276 98.0564L36.9333 99.7114C36.8369 100.118 36.8772 100.545 37.0483 100.927L37.7445 102.478L36.0493 102.615Z" fill="#F47521"/>
<path d="M134.285 61.2387C135.016 60.5268 136.121 59.451 136.121 57.4204C136.121 56.3732 135.274 55.5246 134.227 55.5246C133.179 55.5246 132.331 56.3732 132.331 57.4204C132.331 57.8187 132.227 57.9514 131.64 58.5227C130.909 59.2347 129.804 60.3104 129.804 62.341C129.804 64.3706 130.909 65.4463 131.64 66.1593C132.227 66.7296 132.331 66.8623 132.331 67.2606C132.331 67.6588 132.227 67.7926 131.64 68.3629C130.909 69.0748 129.804 70.1506 129.804 72.1802C129.804 74.2107 130.909 75.2865 131.64 75.9984C132.227 76.5688 132.331 76.7015 132.331 77.0998C132.331 77.497 132.227 77.6308 131.64 78.2011C130.909 78.913 129.804 79.9888 129.804 82.0184C129.804 83.0656 130.652 83.9142 131.699 83.9142C132.747 83.9142 133.594 83.0656 133.594 82.0184C133.594 81.6211 133.699 81.4874 134.285 80.917C135.016 80.2051 136.121 79.1293 136.121 77.0998C136.121 75.0702 135.016 73.9934 134.285 73.2815C133.699 72.7112 133.594 72.5784 133.594 72.1802C133.594 71.7819 133.699 71.6492 134.285 71.0788C135.016 70.3669 136.121 69.2912 136.121 67.2606C136.121 65.231 135.016 64.1542 134.285 63.4423C133.699 62.872 133.594 62.7383 133.594 62.34C133.594 61.9418 133.699 61.809 134.285 61.2387Z" fill="#004CBA"/>
<path d="M34.0167 76.2167C37.6 76.2167 40.5146 73.3021 40.5146 69.7199C40.5146 66.1366 37.6 63.222 34.0167 63.222C30.4345 63.222 27.5199 66.1366 27.5199 69.7199C27.5199 73.3021 30.4345 76.2167 34.0167 76.2167ZM34.0167 67.0128C35.5094 67.0128 36.7238 68.2272 36.7238 69.7199C36.7238 71.2126 35.5094 72.426 34.0167 72.426C32.525 72.426 31.3106 71.2126 31.3106 69.7199C31.3106 68.2272 32.525 67.0128 34.0167 67.0128Z" fill="#004CBA"/>
<path d="M139.291 13.1235H138.9V12.7331C138.9 11.6868 138.052 10.8382 137.004 10.8382C135.958 10.8382 135.11 11.6868 135.11 12.7331V13.1235H134.718C133.672 13.1235 132.823 13.9721 132.823 15.0193C132.823 16.0656 133.672 16.9142 134.718 16.9142H135.11V17.3056C135.11 18.3518 135.958 19.2004 137.004 19.2004C138.052 19.2004 138.9 18.3518 138.9 17.3056V16.9142H139.291C140.338 16.9142 141.187 16.0656 141.187 15.0193C141.187 13.9721 140.338 13.1235 139.291 13.1235Z" fill="#004CBA"/>
<path d="M27.7145 13.0763V12.6849H28.1049C29.1522 12.6849 30.0008 11.8363 30.0008 10.7901C30.0008 9.74281 29.1522 8.8942 28.1049 8.8942H27.7145V8.50382C27.7145 7.45756 26.8659 6.60895 25.8187 6.60895C24.7724 6.60895 23.9238 7.45756 23.9238 8.50382V8.8942H23.5324C22.4862 8.8942 21.6376 9.74281 21.6376 10.7901C21.6376 11.8363 22.4862 12.6849 23.5324 12.6849H23.9238V13.0763C23.9238 14.1226 24.7724 14.9712 25.8187 14.9712C26.8659 14.9712 27.7145 14.1226 27.7145 13.0763Z" fill="#F47521"/>
</svg>
